<?xml version="1.0" encoding="UTF-8" standalone="no"?>
<!DOCTYPE svg PUBLIC "-//W3C//DTD SVG 1.1//EN"
 "http://www.w3.org/Graphics/SVG/1.1/DTD/svg11.dtd">
<!-- Generated by graphviz version 2.26.3 (20100126.1600)
 -->
<!-- Title: G Pages: 1 -->
<svg width="2729pt" height="476pt"
 viewBox="0.00 0.00 2729.43 476.00" xmlns="http://www.w3.org/2000/svg" xmlns:xlink="http://www.w3.org/1999/xlink">
<g id="graph1" class="graph" transform="scale(1 1) rotate(0) translate(4 472)">
<title>G</title>
<polygon fill="white" stroke="white" points="-4,5 -4,-472 2726.43,-472 2726.43,5 -4,5"/>
<!-- AudioWidgets -->
<g id="node1" class="node"><title>AudioWidgets</title>
<polygon fill="none" stroke="black" points="836,-324 672,-324 672,-288 836,-288 836,-324"/>
<text text-anchor="middle" x="754" y="-300.9" font-family="Times,serif" font-size="14.00">&quot;audiowidgets&quot; % &quot;1.3.0&quot;</text>
</g>
<!-- Desktop -->
<g id="node2" class="node"><title>Desktop</title>
<polygon fill="none" stroke="black" points="1029,-252 899,-252 899,-216 1029,-216 1029,-252"/>
<text text-anchor="middle" x="964" y="-228.9" font-family="Times,serif" font-size="14.00">&quot;desktop&quot; % &quot;0.3.3&quot;</text>
</g>
<!-- AudioWidgets&#45;&gt;Desktop -->
<g id="edge2" class="edge"><title>AudioWidgets&#45;&gt;Desktop</title>
<path fill="none" stroke="black" d="M806.721,-287.924C835.554,-278.039 871.448,-265.732 901.663,-255.373"/>
<polygon fill="black" stroke="black" points="902.933,-258.637 911.258,-252.083 900.663,-252.016 902.933,-258.637"/>
</g>
<!-- Model -->
<g id="node17" class="node"><title>Model</title>
<polygon fill="none" stroke="black" points="1026,-180 902,-180 902,-144 1026,-144 1026,-180"/>
<text text-anchor="middle" x="964" y="-156.9" font-family="Times,serif" font-size="14.00">&quot;model&quot; % &quot;0.3.1&quot;</text>
</g>
<!-- AudioWidgets&#45;&gt;Model -->
<g id="edge4" class="edge"><title>AudioWidgets&#45;&gt;Model</title>
<path fill="none" stroke="black" d="M780.597,-287.762C818.309,-261.903 887.37,-214.546 929.141,-185.903"/>
<polygon fill="black" stroke="black" points="931.351,-188.631 937.619,-180.09 927.393,-182.858 931.351,-188.631"/>
</g>
<!-- Span -->
<g id="node34" class="node"><title>Span</title>
<polygon fill="none" stroke="black" points="1689,-252 1577,-252 1577,-216 1689,-216 1689,-252"/>
<text text-anchor="middle" x="1633" y="-228.9" font-family="Times,serif" font-size="14.00">&quot;span&quot; % &quot;1.2.0&quot;</text>
</g>
<!-- AudioWidgets&#45;&gt;Span -->
<g id="edge6" class="edge"><title>AudioWidgets&#45;&gt;Span</title>
<path fill="none" stroke="black" d="M836.257,-289.201C839.203,-288.768 842.124,-288.365 845,-288 1122.79,-252.749 1195,-275.758 1474,-252 1504.45,-249.407 1538.08,-245.72 1566.55,-242.357"/>
<polygon fill="black" stroke="black" points="1567.27,-245.795 1576.78,-241.135 1566.44,-238.845 1567.27,-245.795"/>
</g>
<!-- SwingPlus -->
<g id="node36" class="node"><title>SwingPlus</title>
<polygon fill="none" stroke="black" points="389,-252 243,-252 243,-216 389,-216 389,-252"/>
<text text-anchor="middle" x="316" y="-228.9" font-family="Times,serif" font-size="14.00">&quot;swingplus&quot; % &quot;0.0.1&quot;</text>
</g>
<!-- AudioWidgets&#45;&gt;SwingPlus -->
<g id="edge8" class="edge"><title>AudioWidgets&#45;&gt;SwingPlus</title>
<path fill="none" stroke="black" d="M671.853,-294.177C588.215,-282.032 463.077,-263.537 399.328,-252.164"/>
<polygon fill="black" stroke="black" points="399.734,-248.68 389.269,-250.333 398.481,-255.567 399.734,-248.68"/>
</g>
<!-- Desktop&#45;&gt;Model -->
<g id="edge10" class="edge"><title>Desktop&#45;&gt;Model</title>
<path fill="none" stroke="black" d="M964,-215.831C964,-208.131 964,-198.974 964,-190.417"/>
<polygon fill="black" stroke="black" points="967.5,-190.413 964,-180.413 960.5,-190.413 967.5,-190.413"/>
</g>
<!-- FileCache -->
<g id="node3" class="node"><title>FileCache</title>
<polygon fill="none" stroke="black" points="140,-324 7.10543e-14,-324 0,-288 140,-288 140,-324"/>
<text text-anchor="middle" x="70" y="-300.9" font-family="Times,serif" font-size="14.00">&quot;filecache&quot; % &quot;0.2.0&quot;</text>
</g>
<!-- Serial -->
<g id="node31" class="node"><title>Serial</title>
<polygon fill="none" stroke="black" points="1756,-36 1638,-36 1638,-1.77636e-14 1756,-3.55271e-15 1756,-36"/>
<text text-anchor="middle" x="1697" y="-12.9" font-family="Times,serif" font-size="14.00">&quot;serial&quot; % &quot;1.0.1&quot;</text>
</g>
<!-- FileCache&#45;&gt;Serial -->
<g id="edge12" class="edge"><title>FileCache&#45;&gt;Serial</title>
<path fill="none" stroke="black" d="M92.5256,-287.735C119.77,-266.706 167.864,-232.894 215,-216 481.774,-120.383 1371.6,-43.8333 1627.57,-23.3842"/>
<polygon fill="black" stroke="black" points="1628.15,-26.8488 1637.84,-22.5663 1627.6,-19.8709 1628.15,-26.8488"/>
</g>
<!-- FileUtil -->
<g id="node4" class="node"><title>FileUtil</title>
<polygon fill="none" stroke="black" points="1308,-396 1180,-396 1180,-360 1308,-360 1308,-396"/>
<text text-anchor="middle" x="1244" y="-372.9" font-family="Times,serif" font-size="14.00">&quot;fileutil&quot; % &quot;1.0.0&quot;</text>
</g>
<!-- FingerTree -->
<g id="node5" class="node"><title>FingerTree</title>
<polygon fill="none" stroke="black" points="2396,-252 2252,-252 2252,-216 2396,-216 2396,-252"/>
<text text-anchor="middle" x="2324" y="-228.9" font-family="Times,serif" font-size="14.00">&quot;fingertree&quot; % &quot;1.5.0&quot;</text>
</g>
<!-- FScapeJobs -->
<g id="node6" class="node"><title>FScapeJobs</title>
<polygon fill="none" stroke="black" points="2120,-324 1972,-324 1972,-288 2120,-288 2120,-324"/>
<text text-anchor="middle" x="2046" y="-300.9" font-family="Times,serif" font-size="14.00">&quot;fscapejobs&quot; % &quot;1.4.0&quot;</text>
</g>
<!-- ScalaOSC -->
<g id="node23" class="node"><title>ScalaOSC</title>
<polygon fill="none" stroke="black" points="2029,-252 1895,-252 1895,-216 2029,-216 2029,-252"/>
<text text-anchor="middle" x="1962" y="-228.9" font-family="Times,serif" font-size="14.00">&quot;scalaosc&quot; % &quot;1.1.1&quot;</text>
</g>
<!-- FScapeJobs&#45;&gt;ScalaOSC -->
<g id="edge14" class="edge"><title>FScapeJobs&#45;&gt;ScalaOSC</title>
<path fill="none" stroke="black" d="M2024.8,-287.831C2014.56,-279.048 2002.1,-268.371 1990.99,-258.849"/>
<polygon fill="black" stroke="black" points="1993.06,-256.013 1983.19,-252.163 1988.5,-261.328 1993.06,-256.013"/>
</g>
<!-- ScalaAudioFile -->
<g id="node24" class="node"><title>ScalaAudioFile</title>
<polygon fill="none" stroke="black" points="1877,-252 1707,-252 1707,-216 1877,-216 1877,-252"/>
<text text-anchor="middle" x="1792" y="-228.9" font-family="Times,serif" font-size="14.00">&quot;scalaaudiofile&quot; % &quot;1.4.0&quot;</text>
</g>
<!-- FScapeJobs&#45;&gt;ScalaAudioFile -->
<g id="edge16" class="edge"><title>FScapeJobs&#45;&gt;ScalaAudioFile</title>
<path fill="none" stroke="black" d="M1982.23,-287.924C1946.75,-277.868 1902.44,-265.305 1865.51,-254.836"/>
<polygon fill="black" stroke="black" points="1866.37,-251.443 1855.79,-252.083 1864.46,-258.178 1866.37,-251.443"/>
</g>
<!-- GUIFlitz -->
<g id="node7" class="node"><title>GUIFlitz</title>
<polygon fill="none" stroke="black" points="288,-324 158,-324 158,-288 288,-288 288,-324"/>
<text text-anchor="middle" x="223" y="-300.9" font-family="Times,serif" font-size="14.00">&quot;guiflitz&quot; % &quot;0.0.1&quot;</text>
</g>
<!-- GUIFlitz&#45;&gt;Model -->
<g id="edge18" class="edge"><title>GUIFlitz&#45;&gt;Model</title>
<path fill="none" stroke="black" d="M219.22,-287.876C216.103,-267.305 214.859,-234.248 234,-216 257.587,-193.514 712.136,-172.39 891.808,-164.884"/>
<polygon fill="black" stroke="black" points="892.11,-168.375 901.956,-164.463 891.819,-161.381 892.11,-168.375"/>
</g>
<!-- GUIFlitz&#45;&gt;SwingPlus -->
<g id="edge20" class="edge"><title>GUIFlitz&#45;&gt;SwingPlus</title>
<path fill="none" stroke="black" d="M246.468,-287.831C258.033,-278.878 272.14,-267.956 284.618,-258.295"/>
<polygon fill="black" stroke="black" points="286.775,-261.052 292.54,-252.163 282.49,-255.517 286.775,-261.052"/>
</g>
<!-- IntensityPalette -->
<g id="node8" class="node"><title>IntensityPalette</title>
<polygon fill="none" stroke="green" points="1356,-324 1180,-324 1180,-288 1356,-288 1356,-324"/>
<text text-anchor="middle" x="1268" y="-300.9" font-family="Times,serif" font-size="14.00">&quot;intensitypalette&quot; % &quot;1.0.0&quot;</text>
</g>
<!-- JSyntaxPane -->
<g id="node9" class="node"><title>JSyntaxPane</title>
<polygon fill="none" stroke="green" points="745,-252 591,-252 591,-216 745,-216 745,-252"/>
<text text-anchor="middle" x="668" y="-228.9" font-family="Times,serif" font-size="14.00">&quot;jsyntaxpane&quot; % &quot;1.0.0&quot;</text>
</g>
<!-- Kontur -->
<g id="node10" class="node"><title>Kontur</title>
<polygon fill="none" stroke="red" stroke-dasharray="1,5" points="1316,-468 1114,-468 1114,-432 1316,-432 1316,-468"/>
<text text-anchor="middle" x="1215" y="-444.9" font-family="Times,serif" font-size="14.00">&quot;kontur&quot; % &quot;1.2.0&#45;SNAPSHOT&quot;</text>
</g>
<!-- Kontur&#45;&gt;Desktop -->
<g id="edge22" class="edge"><title>Kontur&#45;&gt;Desktop</title>
<path fill="none" stroke="red" d="M1192.13,-431.802C1161.94,-407.636 1107.31,-363.408 1062,-324 1037.38,-302.586 1010.1,-277.403 990.58,-259.13"/>
<polygon fill="red" stroke="red" points="992.93,-256.536 983.243,-252.243 988.139,-261.639 992.93,-256.536"/>
</g>
<!-- SbtAppbundle -->
<g id="node22" class="node"><title>SbtAppbundle</title>
<polygon fill="none" stroke="blue" points="573,-252 407,-252 407,-216 573,-216 573,-252"/>
<text text-anchor="middle" x="490" y="-228.9" font-family="Times,serif" font-size="14.00">&quot;sbt&#45;appbundle&quot; % &quot;1.0.1&quot;</text>
</g>
<!-- Kontur&#45;&gt;SbtAppbundle -->
<g id="edge24" class="edge"><title>Kontur&#45;&gt;SbtAppbundle</title>
<path fill="none" stroke="blue" d="M1113.73,-433.261C1110.79,-432.829 1107.87,-432.407 1105,-432 948.292,-409.786 502.626,-445.339 401,-324 390.727,-311.734 393.151,-301.943 401,-288 408.203,-275.204 419.799,-265.091 432.274,-257.246"/>
<polygon fill="blue" stroke="blue" points="434.119,-260.223 441.008,-252.173 430.603,-254.17 434.119,-260.223"/>
</g>
<!-- ScalaColliderSwing -->
<g id="node26" class="node"><title>ScalaColliderSwing</title>
<polygon fill="none" stroke="black" points="1010,-396 814,-396 814,-360 1010,-360 1010,-396"/>
<text text-anchor="middle" x="912" y="-372.9" font-family="Times,serif" font-size="14.00">&quot;scalacolliderswing&quot; % &quot;1.9.0&quot;</text>
</g>
<!-- Kontur&#45;&gt;ScalaColliderSwing -->
<g id="edge26" class="edge"><title>Kontur&#45;&gt;ScalaColliderSwing</title>
<path fill="none" stroke="red" d="M1138.93,-431.924C1095.99,-421.72 1042.19,-408.936 997.75,-398.376"/>
<polygon fill="red" stroke="red" points="998.375,-394.927 987.837,-396.021 996.757,-401.738 998.375,-394.927"/>
</g>
<!-- SonogramOverview -->
<g id="node32" class="node"><title>SonogramOverview</title>
<polygon fill="none" stroke="black" points="1560,-396 1364,-396 1364,-360 1560,-360 1560,-396"/>
<text text-anchor="middle" x="1462" y="-372.9" font-family="Times,serif" font-size="14.00">&quot;sonogramoverview&quot; % &quot;1.6.2&quot;</text>
</g>
<!-- Kontur&#45;&gt;SonogramOverview -->
<g id="edge28" class="edge"><title>Kontur&#45;&gt;SonogramOverview</title>
<path fill="none" stroke="red" d="M1277.01,-431.924C1311.36,-421.91 1354.24,-409.412 1390.06,-398.97"/>
<polygon fill="red" stroke="red" points="1391.34,-402.242 1399.96,-396.083 1389.38,-395.522 1391.34,-402.242"/>
</g>
<!-- Kontur&#45;&gt;Span -->
<g id="edge30" class="edge"><title>Kontur&#45;&gt;Span</title>
<path fill="none" stroke="black" d="M1316.18,-444.545C1460.11,-436.057 1710.54,-418.321 1746,-396 1789.86,-368.389 1820.11,-330.191 1790,-288 1784.23,-279.909 1739.09,-264.859 1698.69,-252.698"/>
<polygon fill="black" stroke="black" points="1699.67,-249.338 1689.09,-249.834 1697.67,-256.046 1699.67,-249.338"/>
</g>
<!-- LucreConfluent -->
<g id="node11" class="node"><title>LucreConfluent</title>
<polygon fill="none" stroke="black" points="2346,-324 2176,-324 2176,-288 2346,-288 2346,-324"/>
<text text-anchor="middle" x="2261" y="-300.9" font-family="Times,serif" font-size="14.00">&quot;lucreconfluent&quot; % &quot;2.5.0&quot;</text>
</g>
<!-- LucreConfluent&#45;&gt;FingerTree -->
<g id="edge32" class="edge"><title>LucreConfluent&#45;&gt;FingerTree</title>
<path fill="none" stroke="black" d="M2276.9,-287.831C2284.23,-279.454 2293.07,-269.353 2301.1,-260.175"/>
<polygon fill="black" stroke="black" points="2303.94,-262.244 2307.89,-252.413 2298.67,-257.634 2303.94,-262.244"/>
</g>
<!-- LucreData -->
<g id="node12" class="node"><title>LucreData</title>
<polygon fill="none" stroke="black" points="2290,-180 2150,-180 2150,-144 2290,-144 2290,-180"/>
<text text-anchor="middle" x="2220" y="-156.9" font-family="Times,serif" font-size="14.00">&quot;lucredata&quot; % &quot;2.2.0&quot;</text>
</g>
<!-- LucreConfluent&#45;&gt;LucreData -->
<g id="edge34" class="edge"><title>LucreConfluent&#45;&gt;LucreData</title>
<path fill="none" stroke="black" d="M2254.51,-287.609C2250.93,-277.214 2246.51,-263.946 2243,-252 2236.92,-231.306 2230.91,-207.669 2226.56,-189.812"/>
<polygon fill="black" stroke="black" points="2229.95,-188.935 2224.21,-180.033 2223.15,-190.574 2229.95,-188.935"/>
</g>
<!-- LucreEvent -->
<g id="node13" class="node"><title>LucreEvent</title>
<polygon fill="none" stroke="black" points="2196,-252 2048,-252 2048,-216 2196,-216 2196,-252"/>
<text text-anchor="middle" x="2122" y="-228.9" font-family="Times,serif" font-size="14.00">&quot;lucreevent&quot; % &quot;2.4.0&quot;</text>
</g>
<!-- LucreConfluent&#45;&gt;LucreEvent -->
<g id="edge36" class="edge"><title>LucreConfluent&#45;&gt;LucreEvent</title>
<path fill="none" stroke="black" d="M2225.92,-287.831C2207.73,-278.409 2185.33,-266.806 2165.99,-256.788"/>
<polygon fill="black" stroke="black" points="2167.55,-253.655 2157.06,-252.163 2164.33,-259.87 2167.55,-253.655"/>
</g>
<!-- LucreSTM -->
<g id="node14" class="node"><title>LucreSTM</title>
<polygon fill="none" stroke="black" points="2239,-108 2103,-108 2103,-72 2239,-72 2239,-108"/>
<text text-anchor="middle" x="2171" y="-84.9" font-family="Times,serif" font-size="14.00">&quot;lucrestm&quot; % &quot;2.0.0&quot;</text>
</g>
<!-- LucreData&#45;&gt;LucreSTM -->
<g id="edge38" class="edge"><title>LucreData&#45;&gt;LucreSTM</title>
<path fill="none" stroke="black" d="M2207.64,-143.831C2202.05,-135.623 2195.34,-125.761 2189.19,-116.732"/>
<polygon fill="black" stroke="black" points="2192.05,-114.711 2183.53,-108.413 2186.26,-118.65 2192.05,-114.711"/>
</g>
<!-- LucreEvent&#45;&gt;LucreData -->
<g id="edge42" class="edge"><title>LucreEvent&#45;&gt;LucreData</title>
<path fill="none" stroke="black" d="M2146.73,-215.831C2158.92,-206.878 2173.78,-195.956 2186.93,-186.295"/>
<polygon fill="black" stroke="black" points="2189.29,-188.904 2195.28,-180.163 2185.15,-183.263 2189.29,-188.904"/>
</g>
<!-- LucreEvent&#45;&gt;LucreSTM -->
<g id="edge40" class="edge"><title>LucreEvent&#45;&gt;LucreSTM</title>
<path fill="none" stroke="black" d="M2124.19,-215.967C2126.81,-197.472 2132,-168.084 2141,-144 2144.42,-134.852 2149.2,-125.379 2153.94,-116.97"/>
<polygon fill="black" stroke="black" points="2156.97,-118.726 2159.01,-108.329 2150.93,-115.186 2156.97,-118.726"/>
</g>
<!-- LucreEvent&#45;&gt;Model -->
<g id="edge44" class="edge"><title>LucreEvent&#45;&gt;Model</title>
<path fill="none" stroke="black" d="M2047.91,-217.448C2044.57,-216.914 2041.25,-216.428 2038,-216 1843.57,-190.449 1245,-170.469 1036.51,-164.123"/>
<polygon fill="black" stroke="black" points="1036.39,-160.618 1026.29,-163.813 1036.18,-167.615 1036.39,-160.618"/>
</g>
<!-- LucreSTM&#45;&gt;Serial -->
<g id="edge46" class="edge"><title>LucreSTM&#45;&gt;Serial</title>
<path fill="none" stroke="black" d="M2102.84,-79.6458C2013.17,-66.0256 1856.44,-42.2185 1766.24,-28.5174"/>
<polygon fill="black" stroke="black" points="1766.53,-25.021 1756.11,-26.9795 1765.48,-31.9416 1766.53,-25.021"/>
</g>
<!-- LucreSTM_BDB -->
<g id="node15" class="node"><title>LucreSTM_BDB</title>
<polygon fill="none" stroke="black" points="2642,-180 2478,-180 2478,-144 2642,-144 2642,-180"/>
<text text-anchor="middle" x="2560" y="-156.9" font-family="Times,serif" font-size="14.00">&quot;lucrestm&#45;bdb&quot; % &quot;2.0.0&quot;</text>
</g>
<!-- LucreSTM_BDB&#45;&gt;LucreSTM -->
<g id="edge48" class="edge"><title>LucreSTM_BDB&#45;&gt;LucreSTM</title>
<path fill="none" stroke="black" d="M2477.98,-146.819C2410.56,-134.339 2315.66,-116.775 2249.28,-104.489"/>
<polygon fill="black" stroke="black" points="2249.76,-101.018 2239.29,-102.64 2248.49,-107.901 2249.76,-101.018"/>
</g>
<!-- Mellite -->
<g id="node16" class="node"><title>Mellite</title>
<polygon fill="none" stroke="black" points="1731,-468 1601,-468 1601,-432 1731,-432 1731,-468"/>
<text text-anchor="middle" x="1666" y="-444.9" font-family="Times,serif" font-size="14.00">&quot;mellite&quot; % &quot;0.3.0&quot;</text>
</g>
<!-- Mellite&#45;&gt;Desktop -->
<g id="edge50" class="edge"><title>Mellite&#45;&gt;Desktop</title>
<path fill="none" stroke="black" d="M1600.79,-443.163C1522.67,-434.2 1397.06,-417.109 1355,-396 1334.21,-385.565 1337.51,-370.973 1317,-360 1253.49,-326.028 1227.18,-347.217 1159,-324 1104.76,-305.529 1045.37,-276.801 1006.56,-256.787"/>
<polygon fill="black" stroke="black" points="1008.12,-253.655 997.633,-252.152 1004.89,-259.867 1008.12,-253.655"/>
</g>
<!-- Mellite&#45;&gt;FileUtil -->
<g id="edge52" class="edge"><title>Mellite&#45;&gt;FileUtil</title>
<path fill="none" stroke="black" d="M1600.77,-441.17C1531.4,-431.45 1418.59,-414.702 1322,-396 1320.73,-395.755 1319.46,-395.504 1318.17,-395.248"/>
<polygon fill="black" stroke="black" points="1318.7,-391.782 1308.2,-393.195 1317.29,-398.639 1318.7,-391.782"/>
</g>
<!-- Mellite&#45;&gt;FScapeJobs -->
<g id="edge54" class="edge"><title>Mellite&#45;&gt;FScapeJobs</title>
<path fill="none" stroke="black" d="M1731.07,-441.586C1775.41,-434.006 1834.47,-420.206 1882,-396 1904.21,-384.69 1903.86,-373.206 1925,-360 1944.63,-347.74 1967.51,-336.777 1988.06,-327.985"/>
<polygon fill="black" stroke="black" points="1989.45,-331.197 1997.32,-324.101 1986.75,-324.741 1989.45,-331.197"/>
</g>
<!-- Mellite&#45;&gt;LucreSTM_BDB -->
<g id="edge58" class="edge"><title>Mellite&#45;&gt;LucreSTM_BDB</title>
<path fill="none" stroke="black" d="M1731,-447.843C1847.24,-443.25 2098.12,-429.994 2307,-396 2440.63,-374.252 2479.01,-378.379 2603,-324 2665.17,-296.736 2750.09,-271.496 2711,-216 2702.36,-203.728 2674.2,-192.214 2644.51,-182.996"/>
<polygon fill="black" stroke="black" points="2645.42,-179.616 2634.84,-180.086 2643.41,-186.319 2645.42,-179.616"/>
</g>
<!-- Mellite&#45;&gt;ScalaColliderSwing -->
<g id="edge60" class="edge"><title>Mellite&#45;&gt;ScalaColliderSwing</title>
<path fill="none" stroke="black" d="M1600.73,-443.768C1470.95,-431.374 1179.3,-403.524 1020.33,-388.344"/>
<polygon fill="black" stroke="black" points="1020.34,-384.829 1010.05,-387.363 1019.67,-391.798 1020.34,-384.829"/>
</g>
<!-- Mellite&#45;&gt;SonogramOverview -->
<g id="edge62" class="edge"><title>Mellite&#45;&gt;SonogramOverview</title>
<path fill="none" stroke="black" d="M1614.79,-431.924C1586.9,-422.081 1552.21,-409.839 1522.94,-399.507"/>
<polygon fill="black" stroke="black" points="1523.83,-396.111 1513.24,-396.083 1521.5,-402.712 1523.83,-396.111"/>
</g>
<!-- SoundProcesses -->
<g id="node33" class="node"><title>SoundProcesses</title>
<polygon fill="none" stroke="black" points="2298,-396 2122,-396 2122,-360 2298,-360 2298,-396"/>
<text text-anchor="middle" x="2210" y="-372.9" font-family="Times,serif" font-size="14.00">&quot;soundprocesses&quot; % &quot;1.9.0&quot;</text>
</g>
<!-- Mellite&#45;&gt;SoundProcesses -->
<g id="edge64" class="edge"><title>Mellite&#45;&gt;SoundProcesses</title>
<path fill="none" stroke="black" d="M1731.32,-443.418C1816.5,-434.542 1970.36,-417.515 2111.61,-396.165"/>
<polygon fill="black" stroke="black" points="2112.39,-399.586 2121.75,-394.621 2111.34,-392.666 2112.39,-399.586"/>
</g>
<!-- Strugatzki -->
<g id="node35" class="node"><title>Strugatzki</title>
<polygon fill="none" stroke="black" points="1737,-396 1595,-396 1595,-360 1737,-360 1737,-396"/>
<text text-anchor="middle" x="1666" y="-372.9" font-family="Times,serif" font-size="14.00">&quot;strugatzki&quot; % &quot;2.1.0&quot;</text>
</g>
<!-- Mellite&#45;&gt;Strugatzki -->
<g id="edge66" class="edge"><title>Mellite&#45;&gt;Strugatzki</title>
<path fill="none" stroke="black" d="M1666,-431.831C1666,-424.131 1666,-414.974 1666,-406.417"/>
<polygon fill="black" stroke="black" points="1669.5,-406.413 1666,-396.413 1662.5,-406.413 1669.5,-406.413"/>
</g>
<!-- TreeTable -->
<g id="node37" class="node"><title>TreeTable</title>
<polygon fill="none" stroke="black" points="2104,-396 1934,-396 1934,-360 2104,-360 2104,-396"/>
<text text-anchor="middle" x="2019" y="-372.9" font-family="Times,serif" font-size="14.00">&quot;treetable&#45;scala&quot; % &quot;1.3.1&quot;</text>
</g>
<!-- Mellite&#45;&gt;TreeTable -->
<g id="edge56" class="edge"><title>Mellite&#45;&gt;TreeTable</title>
<path fill="none" stroke="black" d="M1731.16,-436.71C1785.22,-425.683 1862.85,-409.85 1923.86,-397.405"/>
<polygon fill="black" stroke="black" points="1924.79,-400.787 1933.89,-395.359 1923.39,-393.929 1924.79,-400.787"/>
</g>
<!-- PDFlitz -->
<g id="node18" class="node"><title>PDFlitz</title>
<polygon fill="none" stroke="black" points="2540,-252 2414,-252 2414,-216 2540,-216 2540,-252"/>
<text text-anchor="middle" x="2477" y="-228.9" font-family="Times,serif" font-size="14.00">&quot;pdflitz&quot; % &quot;1.0.0&quot;</text>
</g>
<!-- PrefuseCore -->
<g id="node19" class="node"><title>PrefuseCore</title>
<polygon fill="none" stroke="green" points="1010,-324 854,-324 854,-288 1010,-288 1010,-324"/>
<text text-anchor="middle" x="932" y="-300.9" font-family="Times,serif" font-size="14.00">&quot;prefuse&#45;core&quot; % &quot;0.21&quot;</text>
</g>
<!-- Pointillism -->
<g id="node20" class="node"><title>Pointillism</title>
<polygon fill="none" stroke="black" stroke-dasharray="1,5" points="2594,-324 2364,-324 2364,-288 2594,-288 2594,-324"/>
<text text-anchor="middle" x="2479" y="-300.9" font-family="Times,serif" font-size="14.00">&quot;pointillism&quot; % &quot;0.2.0&#45;SNAPSHOT&quot;</text>
</g>
<!-- Pointillism&#45;&gt;FingerTree -->
<g id="edge68" class="edge"><title>Pointillism&#45;&gt;FingerTree</title>
<path fill="none" stroke="black" d="M2439.89,-287.831C2419.25,-278.245 2393.75,-266.401 2371.93,-256.266"/>
<polygon fill="black" stroke="black" points="2373.38,-253.077 2362.83,-252.038 2370.43,-259.425 2373.38,-253.077"/>
</g>
<!-- Pointillism&#45;&gt;PDFlitz -->
<g id="edge70" class="edge"><title>Pointillism&#45;&gt;PDFlitz</title>
<path fill="none" stroke="black" d="M2478.5,-287.831C2478.28,-280.131 2478.03,-270.974 2477.79,-262.417"/>
<polygon fill="black" stroke="black" points="2481.29,-262.312 2477.51,-252.413 2474.29,-262.507 2481.29,-262.312"/>
</g>
<!-- ScalaMIDI -->
<g id="node29" class="node"><title>ScalaMIDI</title>
<polygon fill="none" stroke="black" points="2702,-252 2558,-252 2558,-216 2702,-216 2702,-252"/>
<text text-anchor="middle" x="2630" y="-228.9" font-family="Times,serif" font-size="14.00">&quot;scalamidi&quot; % &quot;0.1.0&quot;</text>
</g>
<!-- Pointillism&#45;&gt;ScalaMIDI -->
<g id="edge72" class="edge"><title>Pointillism&#45;&gt;ScalaMIDI</title>
<path fill="none" stroke="black" d="M2517.1,-287.831C2537.12,-278.287 2561.83,-266.506 2583.02,-256.401"/>
<polygon fill="black" stroke="black" points="2584.65,-259.501 2592.17,-252.038 2581.64,-253.183 2584.65,-259.501"/>
</g>
<!-- Processor -->
<g id="node21" class="node"><title>Processor</title>
<polygon fill="none" stroke="black" points="1465,-252 1323,-252 1323,-216 1465,-216 1465,-252"/>
<text text-anchor="middle" x="1394" y="-228.9" font-family="Times,serif" font-size="14.00">&quot;processor&quot; % &quot;0.2.0&quot;</text>
</g>
<!-- Processor&#45;&gt;Model -->
<g id="edge74" class="edge"><title>Processor&#45;&gt;Model</title>
<path fill="none" stroke="black" d="M1322.99,-222.111C1243.62,-208.819 1115.77,-187.413 1036,-174.055"/>
<polygon fill="black" stroke="black" points="1036.47,-170.586 1026.03,-172.387 1035.32,-177.49 1036.47,-170.586"/>
</g>
<!-- ScalaAudioFile&#45;&gt;Serial -->
<g id="edge76" class="edge"><title>ScalaAudioFile&#45;&gt;Serial</title>
<path fill="none" stroke="black" d="M1784.06,-215.955C1767.44,-178.156 1728.86,-90.4506 1709.12,-45.5564"/>
<polygon fill="black" stroke="black" points="1712.21,-43.8897 1704.98,-36.1451 1705.8,-46.708 1712.21,-43.8897"/>
</g>
<!-- ScalaCollider -->
<g id="node25" class="node"><title>ScalaCollider</title>
<polygon fill="none" stroke="black" points="1764,-324 1602,-324 1602,-288 1764,-288 1764,-324"/>
<text text-anchor="middle" x="1683" y="-300.9" font-family="Times,serif" font-size="14.00">&quot;scalacollider&quot; % &quot;1.9.0&quot;</text>
</g>
<!-- ScalaCollider&#45;&gt;Processor -->
<g id="edge78" class="edge"><title>ScalaCollider&#45;&gt;Processor</title>
<path fill="none" stroke="black" d="M1610.45,-287.924C1569.18,-277.645 1517.42,-264.747 1474.85,-254.143"/>
<polygon fill="black" stroke="black" points="1475.63,-250.731 1465.08,-251.709 1473.94,-257.523 1475.63,-250.731"/>
</g>
<!-- ScalaCollider&#45;&gt;ScalaOSC -->
<g id="edge84" class="edge"><title>ScalaCollider&#45;&gt;ScalaOSC</title>
<path fill="none" stroke="black" d="M1753.04,-287.924C1793.24,-277.551 1843.77,-264.511 1885.07,-253.853"/>
<polygon fill="black" stroke="black" points="1886.01,-257.226 1894.82,-251.338 1884.26,-250.448 1886.01,-257.226"/>
</g>
<!-- ScalaCollider&#45;&gt;ScalaAudioFile -->
<g id="edge80" class="edge"><title>ScalaCollider&#45;&gt;ScalaAudioFile</title>
<path fill="none" stroke="black" d="M1710.51,-287.831C1724.32,-278.707 1741.23,-267.539 1756.05,-257.745"/>
<polygon fill="black" stroke="black" points="1758.09,-260.595 1764.5,-252.163 1754.23,-254.754 1758.09,-260.595"/>
</g>
<!-- ScalaColliderUGens -->
<g id="node27" class="node"><title>ScalaColliderUGens</title>
<polygon fill="none" stroke="black" points="1258,-252 1064,-252 1064,-216 1258,-216 1258,-252"/>
<text text-anchor="middle" x="1161" y="-228.9" font-family="Times,serif" font-size="14.00">&quot;scalacolliderugens&quot; % &quot;1.6.2&quot;</text>
</g>
<!-- ScalaCollider&#45;&gt;ScalaColliderUGens -->
<g id="edge82" class="edge"><title>ScalaCollider&#45;&gt;ScalaColliderUGens</title>
<path fill="none" stroke="black" d="M1601.72,-294.79C1511.96,-282.409 1367.07,-262.423 1268.1,-248.773"/>
<polygon fill="black" stroke="black" points="1268.46,-245.289 1258.07,-247.389 1267.5,-252.223 1268.46,-245.289"/>
</g>
<!-- ScalaColliderSwing&#45;&gt;AudioWidgets -->
<g id="edge94" class="edge"><title>ScalaColliderSwing&#45;&gt;AudioWidgets</title>
<path fill="none" stroke="black" d="M872.13,-359.831C851.092,-350.245 825.102,-338.401 802.86,-328.266"/>
<polygon fill="black" stroke="black" points="804.134,-325 793.583,-324.038 801.232,-331.37 804.134,-325"/>
</g>
<!-- ScalaColliderSwing&#45;&gt;PrefuseCore -->
<g id="edge92" class="edge"><title>ScalaColliderSwing&#45;&gt;PrefuseCore</title>
<path fill="none" stroke="black" d="M917.047,-359.831C919.209,-352.046 921.785,-342.773 924.185,-334.135"/>
<polygon fill="black" stroke="black" points="927.581,-334.985 926.885,-324.413 920.836,-333.112 927.581,-334.985"/>
</g>
<!-- ScalaColliderSwing&#45;&gt;SbtAppbundle -->
<g id="edge86" class="edge"><title>ScalaColliderSwing&#45;&gt;SbtAppbundle</title>
<path fill="none" stroke="blue" d="M813.856,-374.344C675.623,-368.17 437.376,-353.372 411,-324 400.31,-312.096 403.532,-302.15 411,-288 417.552,-275.586 428.384,-265.484 439.958,-257.52"/>
<polygon fill="blue" stroke="blue" points="441.915,-260.423 448.466,-252.097 438.152,-254.521 441.915,-260.423"/>
</g>
<!-- ScalaColliderSwing&#45;&gt;ScalaCollider -->
<g id="edge88" class="edge"><title>ScalaColliderSwing&#45;&gt;ScalaCollider</title>
<path fill="none" stroke="black" d="M1010.03,-369.826C1129.73,-359.713 1338.34,-341.658 1517,-324 1541.34,-321.594 1567.67,-318.819 1592.03,-316.179"/>
<polygon fill="black" stroke="black" points="1592.41,-319.658 1601.98,-315.097 1591.66,-312.699 1592.41,-319.658"/>
</g>
<!-- ScalaInterpreterPane -->
<g id="node28" class="node"><title>ScalaInterpreterPane</title>
<polygon fill="none" stroke="black" points="616,-324 420,-324 420,-288 616,-288 616,-324"/>
<text text-anchor="middle" x="518" y="-300.9" font-family="Times,serif" font-size="14.00">scalainterpreterpane&quot; % &quot;1.4.0&quot;</text>
</g>
<!-- ScalaColliderSwing&#45;&gt;ScalaInterpreterPane -->
<g id="edge90" class="edge"><title>ScalaColliderSwing&#45;&gt;ScalaInterpreterPane</title>
<path fill="none" stroke="black" d="M813.847,-360.063C756.859,-349.649 684.976,-336.513 626.337,-325.798"/>
<polygon fill="black" stroke="black" points="626.765,-322.318 616.298,-323.963 625.506,-329.204 626.765,-322.318"/>
</g>
<!-- ScalaInterpreterPane&#45;&gt;JSyntaxPane -->
<g id="edge96" class="edge"><title>ScalaInterpreterPane&#45;&gt;JSyntaxPane</title>
<path fill="none" stroke="black" d="M555.851,-287.831C575.735,-278.287 600.278,-266.506 621.331,-256.401"/>
<polygon fill="black" stroke="black" points="622.92,-259.521 630.421,-252.038 619.891,-253.21 622.92,-259.521"/>
</g>
<!-- ScalaInterpreterPane&#45;&gt;SbtAppbundle -->
<g id="edge98" class="edge"><title>ScalaInterpreterPane&#45;&gt;SbtAppbundle</title>
<path fill="none" stroke="blue" d="M510.934,-287.831C507.874,-279.962 504.222,-270.571 500.832,-261.853"/>
<polygon fill="blue" stroke="blue" points="504.047,-260.465 497.161,-252.413 497.523,-263.002 504.047,-260.465"/>
</g>
<!-- ScissDSP -->
<g id="node30" class="node"><title>ScissDSP</title>
<polygon fill="none" stroke="black" points="1508,-324 1374,-324 1374,-288 1508,-288 1508,-324"/>
<text text-anchor="middle" x="1441" y="-300.9" font-family="Times,serif" font-size="14.00">&quot;scissdsp&quot; % &quot;1.2.0&quot;</text>
</g>
<!-- SonogramOverview&#45;&gt;FileCache -->
<g id="edge100" class="edge"><title>SonogramOverview&#45;&gt;FileCache</title>
<path fill="none" stroke="black" d="M1363.85,-364.566C1348.2,-362.785 1332.17,-361.173 1317,-360 802.475,-320.221 665.877,-389.112 150.018,-323.972"/>
<polygon fill="black" stroke="black" points="150.447,-320.499 140.085,-322.708 149.563,-327.443 150.447,-320.499"/>
</g>
<!-- SonogramOverview&#45;&gt;IntensityPalette -->
<g id="edge102" class="edge"><title>SonogramOverview&#45;&gt;IntensityPalette</title>
<path fill="none" stroke="black" d="M1413.05,-359.831C1386.64,-350.031 1353.87,-337.871 1326.17,-327.589"/>
<polygon fill="black" stroke="black" points="1327.2,-324.236 1316.6,-324.038 1324.76,-330.799 1327.2,-324.236"/>
</g>
<!-- SonogramOverview&#45;&gt;Processor -->
<g id="edge104" class="edge"><title>SonogramOverview&#45;&gt;Processor</title>
<path fill="none" stroke="black" d="M1363.74,-361.273C1280.53,-346.877 1174.19,-327.834 1171,-324 1160.77,-311.697 1161.11,-300.575 1171,-288 1180.1,-276.434 1253,-260.228 1313.01,-248.592"/>
<polygon fill="black" stroke="black" points="1313.74,-252.016 1322.9,-246.693 1312.42,-245.142 1313.74,-252.016"/>
</g>
<!-- SonogramOverview&#45;&gt;ScalaAudioFile -->
<g id="edge106" class="edge"><title>SonogramOverview&#45;&gt;ScalaAudioFile</title>
<path fill="none" stroke="black" d="M1560.41,-363.622C1648.57,-350.322 1765.21,-331.514 1773,-324 1789.27,-308.307 1793.36,-282.45 1793.76,-262.468"/>
<polygon fill="black" stroke="black" points="1797.26,-262.325 1793.67,-252.357 1790.26,-262.388 1797.26,-262.325"/>
</g>
<!-- SonogramOverview&#45;&gt;ScissDSP -->
<g id="edge108" class="edge"><title>SonogramOverview&#45;&gt;ScissDSP</title>
<path fill="none" stroke="black" d="M1456.7,-359.831C1454.43,-352.046 1451.73,-342.773 1449.21,-334.135"/>
<polygon fill="black" stroke="black" points="1452.53,-333.033 1446.37,-324.413 1445.81,-334.993 1452.53,-333.033"/>
</g>
<!-- SonogramOverview&#45;&gt;Span -->
<g id="edge110" class="edge"><title>SonogramOverview&#45;&gt;Span</title>
<path fill="none" stroke="black" d="M1483.66,-359.762C1514.11,-334.119 1569.66,-287.337 1603.76,-258.626"/>
<polygon fill="black" stroke="black" points="1606.12,-261.208 1611.52,-252.09 1601.61,-255.854 1606.12,-261.208"/>
</g>
<!-- SoundProcesses&#45;&gt;LucreConfluent -->
<g id="edge114" class="edge"><title>SoundProcesses&#45;&gt;LucreConfluent</title>
<path fill="none" stroke="black" d="M2222.87,-359.831C2228.68,-351.623 2235.67,-341.761 2242.06,-332.732"/>
<polygon fill="black" stroke="black" points="2245.03,-334.597 2247.96,-324.413 2239.32,-330.55 2245.03,-334.597"/>
</g>
<!-- SoundProcesses&#45;&gt;LucreEvent -->
<g id="edge116" class="edge"><title>SoundProcesses&#45;&gt;LucreEvent</title>
<path fill="none" stroke="black" d="M2193.87,-359.726C2185.33,-349.587 2174.99,-336.526 2167,-324 2154.17,-303.904 2142.23,-279.657 2133.88,-261.395"/>
<polygon fill="black" stroke="black" points="2137.03,-259.873 2129.74,-252.189 2130.65,-262.744 2137.03,-259.873"/>
</g>
<!-- SoundProcesses&#45;&gt;ScalaCollider -->
<g id="edge112" class="edge"><title>SoundProcesses&#45;&gt;ScalaCollider</title>
<path fill="none" stroke="black" d="M2121.75,-361.397C2118.8,-360.914 2115.88,-360.447 2113,-360 1996.43,-341.881 1861.35,-325.7 1774.16,-315.88"/>
<polygon fill="black" stroke="black" points="1774.36,-312.381 1764.03,-314.744 1773.58,-319.337 1774.36,-312.381"/>
</g>
<!-- SoundProcesses&#45;&gt;Span -->
<g id="edge118" class="edge"><title>SoundProcesses&#45;&gt;Span</title>
<path fill="none" stroke="black" d="M2121.8,-360.681C2063.33,-348.823 1992.2,-333.57 1963,-324 1925.56,-311.73 1919.57,-299.857 1882,-288 1805.64,-263.9 1781.02,-270.543 1699.53,-252.237"/>
<polygon fill="black" stroke="black" points="1699.83,-248.715 1689.3,-249.877 1698.26,-255.536 1699.83,-248.715"/>
</g>
<!-- Span&#45;&gt;Serial -->
<g id="edge120" class="edge"><title>Span&#45;&gt;Serial</title>
<path fill="none" stroke="black" d="M1638.35,-215.955C1649.52,-178.235 1675.42,-90.8188 1688.75,-45.8399"/>
<polygon fill="black" stroke="black" points="1692.14,-46.7274 1691.62,-36.1451 1685.43,-44.7387 1692.14,-46.7274"/>
</g>
<!-- Strugatzki&#45;&gt;IntensityPalette -->
<g id="edge122" class="edge"><title>Strugatzki&#45;&gt;IntensityPalette</title>
<path fill="none" stroke="black" d="M1594.76,-364.707C1586.09,-363.109 1577.34,-361.51 1569,-360 1481.5,-344.161 1457.23,-340.633 1365.97,-324.167"/>
<polygon fill="black" stroke="black" points="1366.49,-320.704 1356.02,-322.369 1365.24,-327.592 1366.49,-320.704"/>
</g>
<!-- Strugatzki&#45;&gt;Processor -->
<g id="edge124" class="edge"><title>Strugatzki&#45;&gt;Processor</title>
<path fill="none" stroke="black" d="M1638.61,-359.978C1609.18,-340.968 1560.73,-310.683 1517,-288 1494.91,-276.541 1469.86,-265.252 1448.16,-255.983"/>
<polygon fill="black" stroke="black" points="1449.35,-252.682 1438.77,-252.007 1446.62,-259.128 1449.35,-252.682"/>
</g>
<!-- Strugatzki&#45;&gt;ScalaCollider -->
<g id="edge126" class="edge"><title>Strugatzki&#45;&gt;ScalaCollider</title>
<path fill="none" stroke="black" d="M1670.29,-359.831C1672.11,-352.131 1674.27,-342.974 1676.29,-334.417"/>
<polygon fill="black" stroke="black" points="1679.76,-334.95 1678.65,-324.413 1672.95,-333.341 1679.76,-334.95"/>
</g>
<!-- Strugatzki&#45;&gt;Span -->
<g id="edge128" class="edge"><title>Strugatzki&#45;&gt;Span</title>
<path fill="none" stroke="black" d="M1729.12,-359.982C1746.33,-351.862 1762.97,-340.303 1773,-324 1781.39,-310.374 1782.05,-301.193 1773,-288 1768.22,-281.03 1732.3,-267.246 1698.04,-255.349"/>
<polygon fill="black" stroke="black" points="1699.04,-251.994 1688.45,-252.051 1696.77,-258.613 1699.04,-251.994"/>
</g>
<!-- SysSon -->
<g id="node38" class="node"><title>SysSon</title>
<polygon fill="none" stroke="black" stroke-dasharray="1,5" points="1096,-468 892,-468 892,-432 1096,-432 1096,-468"/>
<text text-anchor="middle" x="994" y="-444.9" font-family="Times,serif" font-size="14.00">&quot;sysson&quot; % &quot;0.1.0&#45;SNAPSHOT&quot;</text>
</g>
<!-- SysSon&#45;&gt;Desktop -->
<g id="edge130" class="edge"><title>SysSon&#45;&gt;Desktop</title>
<path fill="none" stroke="black" d="M916.294,-431.973C827.341,-409.486 690.352,-368.536 663,-324 654.627,-310.366 652.734,-300.272 663,-288 691.258,-254.221 809.306,-241.545 888.897,-236.806"/>
<polygon fill="black" stroke="black" points="889.102,-240.3 898.888,-236.24 888.706,-233.311 889.102,-240.3"/>
</g>
<!-- SysSon&#45;&gt;FileCache -->
<g id="edge132" class="edge"><title>SysSon&#45;&gt;FileCache</title>
<path fill="none" stroke="black" d="M891.918,-445.694C727.483,-438.141 411.343,-420.907 302,-396 235.006,-380.739 161.709,-349.704 115.799,-328.384"/>
<polygon fill="black" stroke="black" points="117.251,-325.199 106.711,-324.124 114.28,-331.537 117.251,-325.199"/>
</g>
<!-- SysSon&#45;&gt;FileUtil -->
<g id="edge134" class="edge"><title>SysSon&#45;&gt;FileUtil</title>
<path fill="none" stroke="black" d="M1056.76,-431.924C1091.53,-421.91 1134.93,-409.412 1171.19,-398.97"/>
<polygon fill="black" stroke="black" points="1172.57,-402.214 1181.21,-396.083 1170.63,-395.487 1172.57,-402.214"/>
</g>
<!-- SysSon&#45;&gt;IntensityPalette -->
<g id="edge136" class="edge"><title>SysSon&#45;&gt;IntensityPalette</title>
<path fill="none" stroke="black" d="M1028.86,-431.823C1047.37,-421.817 1070.3,-408.849 1090,-396 1112.34,-381.432 1114.84,-373.218 1138,-360 1159.64,-347.652 1184.66,-336.575 1206.93,-327.716"/>
<polygon fill="black" stroke="black" points="1208.25,-330.957 1216.29,-324.057 1205.7,-324.438 1208.25,-330.957"/>
</g>
<!-- SysSon&#45;&gt;ScalaOSC -->
<g id="edge144" class="edge"><title>SysSon&#45;&gt;ScalaOSC</title>
<path fill="none" stroke="black" d="M1096.16,-433.021C1099.14,-432.658 1102.09,-432.317 1105,-432 1246.83,-416.56 1611.97,-444.894 1746,-396 1825.96,-366.829 1901.16,-297.535 1938.13,-259.714"/>
<polygon fill="black" stroke="black" points="1941,-261.775 1945.42,-252.146 1935.96,-256.917 1941,-261.775"/>
</g>
<!-- SysSon&#45;&gt;ScalaCollider -->
<g id="edge138" class="edge"><title>SysSon&#45;&gt;ScalaCollider</title>
<path fill="none" stroke="black" d="M1049.97,-431.917C1074.73,-422.802 1103.69,-410.573 1128,-396 1149.38,-383.184 1148.05,-369.714 1171,-360 1313.38,-299.743 1363.26,-340.334 1517,-324 1541.32,-321.416 1567.64,-318.58 1592.01,-315.939"/>
<polygon fill="black" stroke="black" points="1592.39,-319.418 1601.95,-314.859 1591.63,-312.459 1592.39,-319.418"/>
</g>
<!-- SysSon&#45;&gt;ScalaColliderSwing -->
<g id="edge140" class="edge"><title>SysSon&#45;&gt;ScalaColliderSwing</title>
<path fill="none" stroke="black" d="M973.308,-431.831C963.305,-423.048 951.145,-412.371 940.3,-402.849"/>
<polygon fill="black" stroke="black" points="942.509,-400.131 932.685,-396.163 937.891,-405.391 942.509,-400.131"/>
</g>
<!-- SysSon&#45;&gt;ScalaColliderUGens -->
<g id="edge142" class="edge"><title>SysSon&#45;&gt;ScalaColliderUGens</title>
<path fill="none" stroke="black" d="M1007.95,-431.955C1037.48,-393.759 1106.41,-304.603 1140.78,-260.156"/>
<polygon fill="black" stroke="black" points="1143.62,-262.197 1146.97,-252.145 1138.09,-257.916 1143.62,-262.197"/>
</g>
<!-- SysSon&#45;&gt;SwingPlus -->
<g id="edge146" class="edge"><title>SysSon&#45;&gt;SwingPlus</title>
<path fill="none" stroke="black" d="M891.819,-448.419C717.921,-444.734 379.327,-432.862 340,-396 303.655,-361.934 305.817,-298.617 310.802,-262.044"/>
<polygon fill="black" stroke="black" points="314.279,-262.462 312.327,-252.049 307.359,-261.407 314.279,-262.462"/>
</g>
</g>
</svg>
